<?xml version="1.0" encoding="iso-8859-1"?>
<!-- Generator: Adobe Illustrator 19.0.0, SVG Export Plug-In . SVG Version: 6.00 Build 0)  -->
<svg version="1.1" id="Layer_1" xmlns="http://www.w3.org/2000/svg" xmlns:xlink="http://www.w3.org/1999/xlink" x="0px" y="0px"
	 viewBox="0 0 512 512" style="enable-background:new 0 0 512 512;" xml:space="preserve">
<polygon style="fill:#DCDCDC;" points="503.83,400.34 503.83,503.83 471.149,503.83 438.468,452.085 471.149,400.34 "/>
<rect x="8.17" y="400.34" style="fill:#EEEEEE;" width="462.979" height="103.489"/>
<g>
	<circle style="fill:#969696;" cx="79.883" cy="452.085" r="16.34"/>
	<circle style="fill:#969696;" cx="167.947" cy="452.085" r="16.34"/>
	<circle style="fill:#969696;" cx="256" cy="452.085" r="16.34"/>
	<circle style="fill:#969696;" cx="344.053" cy="452.085" r="16.34"/>
	<circle style="fill:#969696;" cx="432.117" cy="452.085" r="16.34"/>
</g>
<path style="fill:#42C8C6;" d="M257.482,209.713l112.901,147.053h32.681C403.064,276.044,338.029,210.508,257.482,209.713z"/>
<path style="fill:#FFC1A6;" d="M256,8.17v168.851c46.625,0,84.426-37.801,84.426-84.426S302.625,8.17,256,8.17z"/>
<path style="fill:#81E3E2;" d="M257.482,209.713c62.486,1.024,112.901,66.462,112.901,147.053H108.936
	c0-81.223,65.841-147.064,147.064-147.064C256.49,209.702,256.991,209.702,257.482,209.713z"/>
<path style="fill:#FFDBCC;" d="M256,8.17c28.574,0,51.745,37.801,51.745,84.426S284.574,177.021,256,177.021
	c-46.625,0-84.426-37.801-84.426-84.426S209.375,8.17,256,8.17z"/>
<path d="M79.886,476.596c13.516,0,24.511-10.996,24.511-24.511c0-13.515-10.995-24.511-24.511-24.511s-24.511,10.996-24.511,24.511
	C55.376,465.6,66.372,476.596,79.886,476.596z M79.886,443.915c4.506,0,8.17,3.665,8.17,8.17s-3.665,8.17-8.17,8.17
	c-4.506,0-8.17-3.665-8.17-8.17S75.382,443.915,79.886,443.915z"/>
<path d="M167.944,476.596c13.516,0,24.511-10.996,24.511-24.511c0-13.515-10.995-24.511-24.511-24.511
	c-13.516,0-24.511,10.996-24.511,24.511C143.433,465.6,154.428,476.596,167.944,476.596z M167.944,443.915
	c4.506,0,8.17,3.665,8.17,8.17s-3.665,8.17-8.17,8.17s-8.17-3.665-8.17-8.17S163.438,443.915,167.944,443.915z"/>
<path d="M256,476.596c13.516,0,24.511-10.996,24.511-24.511c0-13.515-10.995-24.511-24.511-24.511s-24.511,10.996-24.511,24.511
	C231.489,465.6,242.484,476.596,256,476.596z M256,443.915c4.506,0,8.17,3.665,8.17,8.17s-3.665,8.17-8.17,8.17
	s-8.17-3.665-8.17-8.17S251.494,443.915,256,443.915z"/>
<path d="M344.056,476.596c13.516,0,24.511-10.996,24.511-24.511c0-13.515-10.995-24.511-24.511-24.511s-24.511,10.996-24.511,24.511
	C319.546,465.6,330.542,476.596,344.056,476.596z M344.056,443.915c4.506,0,8.17,3.665,8.17,8.17s-3.665,8.17-8.17,8.17
	s-8.17-3.665-8.17-8.17S339.552,443.915,344.056,443.915z"/>
<path d="M432.114,476.596c13.516,0,24.511-10.996,24.511-24.511c0-13.515-10.995-24.511-24.511-24.511
	c-13.516,0-24.511,10.996-24.511,24.511C407.603,465.6,418.598,476.596,432.114,476.596z M432.114,443.915
	c4.506,0,8.17,3.665,8.17,8.17s-3.665,8.17-8.17,8.17s-8.17-3.665-8.17-8.17S427.608,443.915,432.114,443.915z"/>
<path d="M503.83,392.17H8.17c-4.512,0-8.17,3.657-8.17,8.17V503.83c0,4.513,3.658,8.17,8.17,8.17h495.66
	c4.512,0,8.17-3.657,8.17-8.17V400.34C512,395.827,508.342,392.17,503.83,392.17z M495.66,495.66H16.34v-87.149H495.66V495.66z"/>
<path d="M256,185.191c51.057,0,92.596-41.538,92.596-92.596S307.057,0,256,0s-92.596,41.538-92.596,92.596
	S204.943,185.191,256,185.191z M256,16.34c42.047,0,76.255,34.208,76.255,76.255S298.047,168.851,256,168.851
	s-76.255-34.208-76.255-76.255S213.953,16.34,256,16.34z"/>
<path d="M256,125.121c10.704,0,20.343-6.505,23.987-16.186c1.589-4.222-0.545-8.935-4.768-10.524
	c-4.223-1.588-8.935,0.546-10.524,4.769c-1.262,3.35-4.755,5.601-8.694,5.601c-3.939,0-7.433-2.251-8.694-5.601
	c-1.589-4.222-6.3-6.358-10.524-4.769c-4.222,1.589-6.358,6.302-4.768,10.524C235.657,118.617,245.296,125.121,256,125.121z"/>
<path d="M108.936,364.936h54.468c4.512,0,8.17-3.657,8.17-8.17c0-4.513-3.658-8.17-8.17-8.17h-46.06
	c4.245-72.797,64.814-130.723,138.656-130.723s134.411,57.927,138.656,130.723H196.085c-4.512,0-8.17,3.657-8.17,8.17
	c0,4.513,3.658,8.17,8.17,8.17h206.979c4.512,0,8.17-3.657,8.17-8.17c0-85.597-69.637-155.234-155.234-155.234
	s-155.234,69.637-155.234,155.234C100.766,361.279,104.424,364.936,108.936,364.936z"/>
<g>
</g>
<g>
</g>
<g>
</g>
<g>
</g>
<g>
</g>
<g>
</g>
<g>
</g>
<g>
</g>
<g>
</g>
<g>
</g>
<g>
</g>
<g>
</g>
<g>
</g>
<g>
</g>
<g>
</g>
</svg>
